<svg width="1440" height="336" viewBox="0 0 1440 336" fill="none" xmlns="http://www.w3.org/2000/svg">
<rect width="1440" height="336" fill="#00B1F7"/>
<path d="M28.8013 85.7463L0 91.1866V336H1439V91.1866L1420.33 102.747L1404.33 113.628L1396.33 108.188H1384.6L1371.26 102.747H1354.2H1336.6L1318.99 108.188L1300.86 113.628L1285.39 123.148L1273.13 132.669L1260.33 148.99V123.148H1246.99V91.1866H1229.92V67.3853H1212.86V61.945V17.0625H1205.39V67.3853H1189.39V91.1866H1171.25V123.148H1156.32V262.556H1147.79L1145.12 259.156L1127.52 241.475L1092.85 201.353L1031.51 91.1866L970.178 54.4646H870.44L623.496 59.2248L565.359 49.0243H532.825L446.954 72.1455H386.151L362.683 85.7463L333.882 91.1866H304.014L291.747 72.1455L283.213 63.9851H254.412L227.744 77.5858L214.41 91.1866H204.276V104.787L117.339 63.9851L90.1375 91.1866V112.948H33.0682L28.8013 85.7463Z" fill="black" fill-opacity="0.1"/>
</svg>
